<svg width="32" height="32" viewBox="0 0 32 32" fill="none" xmlns="http://www.w3.org/2000/svg">
<g clip-path="url(#clip0_2181_6499)">
<path fill-rule="evenodd" clip-rule="evenodd" d="M1.40277 22.5531L14.1214 25.9557C14.1043 26.8601 14.131 27.7647 14.2014 28.6664L22.1428 30.7904C19.7874 31.7626 17.2339 32.158 14.6948 31.9437L14.4548 31.9224L14.3961 31.9171L14.2841 31.9051L14.1588 31.8917C14.0889 31.8833 14.0191 31.8744 13.9494 31.8651L13.8068 31.8464L13.6601 31.8251C13.5176 31.8043 13.3753 31.7817 13.2334 31.7571L13.1774 31.7464L13.0774 31.7291L12.9348 31.7024L12.8414 31.6824L12.7174 31.6571L12.6174 31.6357L12.4908 31.6091L12.3614 31.5784L12.2361 31.5491L12.1454 31.5264L12.0281 31.4971L11.9081 31.4651L11.7814 31.4317L11.6721 31.4011L11.5268 31.3611L11.4441 31.3344L11.3321 31.3011L11.2081 31.2637L11.0681 31.2184L10.9908 31.1931L10.8841 31.1584L10.7641 31.1171L10.6761 31.0851C10.6565 31.0785 10.637 31.0718 10.6174 31.0651L10.5268 31.0317L10.3921 30.9824L10.3161 30.9531L10.2094 30.9131L10.0934 30.8664L9.9761 30.8197L9.87077 30.7771L9.7441 30.7237L9.6601 30.6864L9.5761 30.6504C9.55785 30.6425 9.53962 30.6345 9.52143 30.6264L9.43343 30.5864L9.2961 30.5237L9.22677 30.4917L9.09877 30.4304L9.0161 30.3904L8.9041 30.3371L8.78943 30.2784L8.66543 30.2157L8.5961 30.1797L8.45877 30.1064L8.38277 30.0664L8.30543 30.0237C8.28494 30.0123 8.2645 30.0007 8.2441 29.9891L8.11877 29.9184L8.03877 29.8731L7.97077 29.8331L7.87477 29.7784L7.76543 29.7117L7.64143 29.6371L7.5721 29.5944L7.4601 29.5237L7.37877 29.4717L7.27343 29.4051L7.1801 29.3424L7.10943 29.2957C7.08537 29.2798 7.06137 29.2638 7.03743 29.2477L6.97877 29.2077L6.9201 29.1677C6.90227 29.1554 6.88449 29.1429 6.86677 29.1304L6.79077 29.0771L6.68943 29.0051L6.59743 28.9384L6.49877 28.8664L6.4241 28.8104L6.32277 28.7344L6.22143 28.6557L6.10677 28.5664L6.04677 28.5197L5.96143 28.4504L5.86277 28.3704L5.7441 28.2731L5.68277 28.2211L5.62143 28.1691C5.60226 28.1527 5.58315 28.1363 5.5641 28.1197L5.5041 28.0664L5.42277 27.9957L5.32943 27.9131L5.23877 27.8331L5.1561 27.7557L5.06677 27.6731L4.9961 27.6064L4.87877 27.4944C4.83454 27.4515 4.79054 27.4084 4.74677 27.3651L4.7081 27.3277L4.65343 27.2717L4.56143 27.1784L4.49477 27.1104L4.4281 27.0397C4.35193 26.9616 4.27725 26.882 4.2041 26.8011L4.09743 26.6837L4.01477 26.5904L3.9201 26.4837L3.8641 26.4184L3.79343 26.3357L3.7161 26.2451L3.65477 26.1704C3.64272 26.1558 3.63072 26.1411 3.61877 26.1264L3.55877 26.0531L3.47077 25.9437L3.4161 25.8744L3.34943 25.7891L3.32277 25.7557C2.55986 24.7668 1.91546 23.692 1.40277 22.5531ZM0.0427658 14.8277L15.1801 18.8771C14.9267 19.7598 14.718 20.6547 14.5548 21.5584L28.9774 25.4171C28.2609 26.3981 27.4357 27.295 26.5174 28.0904L0.876099 21.2291L0.854766 21.1677L0.808099 21.0291C0.78542 20.9612 0.763197 20.8932 0.741432 20.8251L0.732099 20.7944C0.629471 20.4681 0.537423 20.1386 0.456099 19.8064L0.416099 19.6384L0.392099 19.5317L0.364099 19.4024L0.340099 19.2944L0.316099 19.1744L0.293432 19.0624L0.269432 18.9371C0.234766 18.7491 0.202766 18.5597 0.174766 18.3691L0.152099 18.2117L0.137432 18.1011L0.120099 17.9651C0.111172 17.8936 0.102727 17.822 0.0947658 17.7504L0.0880991 17.6877C-0.0115193 16.7376 -0.0266898 15.7805 0.0427658 14.8277ZM2.16677 7.96107L18.0974 12.2224C17.6068 13.0291 17.1574 13.8637 16.7508 14.7224L31.8108 18.7517C31.6214 19.8451 31.3201 20.9011 30.9201 21.9051L15.5201 17.7851L0.165432 13.6784L0.185432 13.5451L0.196099 13.4797L0.209432 13.3904L0.229432 13.2744L0.253432 13.1437C0.288099 12.9464 0.328099 12.7504 0.370766 12.5544L0.408099 12.3891L0.434766 12.2757L0.466766 12.1464C0.496099 12.0264 0.526766 11.9064 0.560099 11.7891L0.597433 11.6531L0.628099 11.5424L0.668099 11.4091L0.701432 11.2997L0.741432 11.1717L0.776099 11.0624L0.817432 10.9357C1.16271 9.90004 1.61399 8.90275 2.1641 7.95974L2.16677 7.96107ZM8.08943 2.0944L23.1361 6.1184C22.3421 6.83907 21.5906 7.60525 20.8854 8.41307L31.3161 11.2037C31.6721 12.3397 31.9054 13.5291 32.0001 14.7571L2.8081 6.94907L2.8681 6.8624L2.9041 6.80907L2.95743 6.73574L3.01877 6.64907L3.0921 6.54774L3.1641 6.45174L3.24943 6.33707L3.3161 6.2504L3.3921 6.15307L3.46543 6.05974L3.54543 5.96107L3.61877 5.86907L3.70543 5.7664L3.77743 5.6784L3.86543 5.57574L3.9361 5.49574L4.0321 5.3864L4.10277 5.3064L4.1921 5.20774L4.2641 5.1304L4.36143 5.0264L4.43877 4.9464L4.52277 4.85707L4.74677 4.6304L4.8801 4.49974L4.95877 4.42507L5.0601 4.3304C5.97902 3.46924 6.99574 2.71878 8.08943 2.0944ZM16.0228 -0.00159635H16.1521L16.2614 -0.000263021L16.3534 0.00107031L16.4254 0.00373698L16.5161 0.00640365L16.5774 0.00773698L16.6788 0.011737L16.7414 0.0144036L16.8214 0.0184036L16.8934 0.0210703L17.0094 0.027737L17.1494 0.0370703L17.3414 0.051737L17.4588 0.0610703L17.5174 0.0664036L17.6201 0.0770703L17.7294 0.087737L17.7921 0.0944036L17.9281 0.110404L17.9948 0.118404L18.1388 0.13707L18.2468 0.150404L18.3028 0.158404L18.3894 0.171737L18.6654 0.214404L18.7588 0.230404L18.8454 0.24507L19.0321 0.279737L19.1548 0.303737L19.3014 0.33307L19.3628 0.346404L19.4628 0.367737L19.5174 0.38107L19.6001 0.398404L19.6561 0.411737L19.7428 0.431737L19.8081 0.447737L19.9028 0.470404L20.0308 0.502404L20.1801 0.542404L20.3308 0.582404L20.4814 0.62507L20.5481 0.64507L20.6414 0.671737L20.7454 0.703737L20.8428 0.734404L20.9094 0.755737L20.9761 0.77707L21.0774 0.810404L21.2094 0.854404L21.3454 0.902404L21.4094 0.92507L21.4948 0.955737L21.6188 1.00107L21.7654 1.05574L21.9201 1.11574L22.0534 1.16907L22.1161 1.19574L22.1961 1.22774L22.2508 1.25174L22.3348 1.2864L22.3881 1.3104L22.4641 1.34374L22.6108 1.40774L22.7441 1.46907L22.8428 1.51574L22.9428 1.56374L23.0228 1.60107L23.1454 1.6624L23.2668 1.7224L23.4028 1.79174L23.4734 1.82907L23.5388 1.86374L23.6001 1.89574L23.6801 1.93974L23.7348 1.96907L23.8041 2.00774L23.9214 2.0744L24.0628 2.1544L24.1788 2.2224L24.2548 2.26774L24.3254 2.3104L24.4534 2.38907L24.5708 2.4624L24.7014 2.54507L24.7494 2.57707L24.8348 2.63174L24.9468 2.7064L25.0001 2.7424L25.0828 2.7984L25.1654 2.85574L25.1961 2.8784C25.2681 2.92774 25.3401 2.9784 25.4108 3.0304L25.5214 3.1104L25.6081 3.1744L25.6828 3.23174L25.7974 3.3184L25.9068 3.40374L25.9601 3.44374L26.0268 3.4984L26.1414 3.5904L26.2468 3.67707L26.3601 3.77174C27.3094 4.57174 28.1641 5.4824 28.9054 6.47974L9.62943 1.32374L9.7121 1.28774L9.79877 1.2504L9.90677 1.20507L10.0214 1.1584C10.1721 1.0984 10.3241 1.0384 10.4761 0.983737L10.6041 0.93707L10.7281 0.89307L10.8401 0.85307L10.9681 0.811737C11.0841 0.771737 11.2028 0.734404 11.3201 0.698404L11.4414 0.662404L11.5561 0.62907L11.6921 0.58907L11.8054 0.558404L11.9388 0.523737L12.0534 0.491737L12.1734 0.46107L12.2948 0.431737L12.4214 0.402404L12.5414 0.375737L12.6721 0.347737L12.7934 0.32107L12.9201 0.29707L13.0428 0.27307L13.1761 0.24907L13.2974 0.227737L13.4281 0.20507L13.5508 0.186404L13.6801 0.166404L13.8028 0.14907L13.9388 0.131737L14.0601 0.115737L14.2001 0.099737L14.3201 0.0864037L14.4601 0.0730703C14.5841 0.059737 14.7081 0.0490703 14.8334 0.0410703L14.9748 0.0304036L15.0948 0.023737L15.2414 0.015737L15.3654 0.0104036L15.4988 0.00507031L15.6281 0.00240365L15.7601 -0.000263021L16.0228 -0.00292969V-0.00159635Z" fill="white"/>
</g>
<defs>
<clipPath id="clip0_2181_6499">
<rect width="32" height="32" fill="white"/>
</clipPath>
</defs>
</svg>
