<svg width="18" height="18" viewBox="0 0 18 18" fill="none" xmlns="http://www.w3.org/2000/svg">
<path d="M15.3461 7.6734C15.4713 7.30237 15.5351 6.9139 15.5352 6.52288C15.5351 5.87584 15.3604 5.24049 15.0291 4.68213C14.3633 3.5386 13.1282 2.8326 11.7915 2.8326C11.5281 2.8326 11.2655 2.86005 11.008 2.91447C10.6617 2.52945 10.2366 2.22124 9.76067 2.01016C9.28479 1.79909 8.76896 1.68995 8.24721 1.68994H8.22378L8.21498 1.68999C6.596 1.68999 5.16023 2.72077 4.66254 4.24037C4.14737 4.34448 3.66067 4.55598 3.23505 4.8607C2.80942 5.16543 2.45468 5.55636 2.19457 6.00731C1.86422 6.56903 1.69014 7.20689 1.68994 7.85633C1.69007 8.76904 2.03344 9.64923 2.65356 10.3265C2.52839 10.6975 2.46455 11.086 2.46449 11.477C2.46455 12.124 2.63923 12.7594 2.97056 13.3177C3.36459 13.9946 3.96631 14.5306 4.68896 14.8483C5.41162 15.1659 6.21786 15.249 6.99142 15.0853C7.33781 15.4704 7.76298 15.7786 8.23889 15.9897C8.71481 16.2007 9.23066 16.3099 9.75244 16.3099H9.77588L9.7854 16.3099C11.4053 16.3099 12.8406 15.279 13.3382 13.7581C13.8534 13.6539 14.3401 13.4424 14.7657 13.1377C15.1914 12.8329 15.5461 12.442 15.8063 11.9911C16.1363 11.4298 16.31 10.7925 16.3099 10.1437C16.3098 9.23099 15.9664 8.35082 15.3463 7.6736L15.3461 7.6734ZM9.77681 15.3541H9.77298C9.1248 15.3539 8.4972 15.1295 7.99932 14.72C8.02889 14.7043 8.0581 14.688 8.08695 14.671L11.0372 12.9896C11.1108 12.9482 11.172 12.8884 11.2146 12.8161C11.2572 12.7439 11.2797 12.6618 11.2797 12.5782V8.47148L12.5267 9.18192C12.5333 9.18514 12.5389 9.1899 12.5431 9.19579C12.5474 9.20167 12.5501 9.2085 12.551 9.21566V12.6143C12.5493 14.1253 11.3083 15.3511 9.77681 15.3541ZM3.81086 12.84C3.56717 12.4242 3.43878 11.9525 3.43862 11.4722C3.43862 11.3155 3.45248 11.1585 3.47948 11.0041C3.50142 11.0171 3.5397 11.0402 3.56716 11.0557L6.51742 12.7372C6.59097 12.7796 6.67462 12.8019 6.75979 12.8019C6.84496 12.8018 6.92859 12.7795 7.00213 12.7371L10.6041 10.685V12.1059L10.6041 12.1084C10.6041 12.1152 10.6025 12.122 10.5994 12.1281C10.5963 12.1342 10.5918 12.1395 10.5863 12.1436L7.60385 13.8427C7.18185 14.0823 6.70351 14.2085 6.21661 14.2087C5.72919 14.2086 5.25036 14.0821 4.82812 13.8418C4.40588 13.6016 4.05507 13.256 3.81086 12.8398V12.84ZM3.03471 6.48506C3.35874 5.92973 3.87038 5.50452 4.48009 5.28385C4.48009 5.30891 4.47864 5.35332 4.47864 5.38415V8.7471L4.47859 8.74985C4.4786 8.83336 4.50101 8.91537 4.54354 8.98756C4.58607 9.05975 4.64721 9.11955 4.72074 9.16089L8.32268 11.2127L7.07574 11.9231C7.06959 11.9271 7.06253 11.9296 7.05519 11.9302C7.04785 11.9309 7.04046 11.9298 7.03368 11.9269L4.05094 10.2264C3.62929 9.98541 3.27924 9.63928 3.03587 9.22273C2.79251 8.80617 2.66438 8.33382 2.66432 7.85301C2.66451 7.37295 2.79227 6.90134 3.03486 6.48521L3.03471 6.48506ZM13.2801 8.83749L9.67811 6.78543L10.9251 6.07525C10.9313 6.07124 10.9383 6.0688 10.9457 6.06814C10.953 6.06748 10.9604 6.06863 10.9672 6.07147L13.9499 7.77053C14.3719 8.01117 14.7223 8.35711 14.9659 8.77362C15.2096 9.19013 15.3379 9.66256 15.338 10.1435C15.338 11.2913 14.6121 12.3184 13.5206 12.7149V9.25139C13.5208 9.25011 13.5208 9.24878 13.5208 9.24751C13.5207 9.16431 13.4985 9.0826 13.4562 9.01061C13.4139 8.93862 13.3532 8.87891 13.2801 8.83749ZM14.5212 6.99434C14.4922 6.97681 14.463 6.95963 14.4336 6.94279L11.4833 5.26129C11.4098 5.219 11.3262 5.1967 11.241 5.19667C11.1559 5.1967 11.0723 5.219 10.9987 5.26129L7.39672 7.3134V5.89247L7.39667 5.89002C7.39667 5.87613 7.40334 5.86307 7.41457 5.85475L10.397 4.15712C10.8189 3.91715 11.2972 3.79082 11.7842 3.7908C13.3177 3.7908 14.5612 5.01783 14.5612 6.53089C14.5612 6.68616 14.5478 6.84115 14.5212 6.99419V6.99434ZM6.71875 9.52691L5.47149 8.81646C5.46495 8.81324 5.45931 8.80848 5.45508 8.80259C5.45084 8.79671 5.44815 8.78988 5.44723 8.78273V5.38405C5.4479 3.8718 6.69149 2.64579 8.22429 2.64579C8.87348 2.64592 9.50214 2.87032 10.0012 3.28003C9.97871 3.29212 9.93955 3.31346 9.91353 3.32903L6.96328 5.01048C6.88966 5.0518 6.82845 5.11162 6.78587 5.18385C6.74328 5.25608 6.72084 5.33815 6.72082 5.42171V5.42442L6.71875 9.52691ZM7.39615 8.08586L9.0004 7.17161L10.6046 8.08525V9.91313L9.0004 10.8268L7.39615 9.91313V8.08586Z" fill="white"/>
</svg>
